<?xml version="1.0" encoding="utf-8"?>
<!-- Generator: Adobe Illustrator 21.1.0, SVG Export Plug-In . SVG Version: 6.00 Build 0)  -->
<svg version="1.1" id="Layer_1" xmlns="http://www.w3.org/2000/svg" xmlns:xlink="http://www.w3.org/1999/xlink" x="0px" y="0px"
	 viewBox="0 0 454 447" style="enable-background:new 0 0 454 447;" xml:space="preserve">
<style type="text/css">
	.st0{fill:#FFFFFF;stroke:#000000;stroke-width:1.0486;stroke-miterlimit:10;}
	.st1{fill:#FFFFFF;stroke:#000000;stroke-miterlimit:10;}
	.st2{fill:#FFFFFF;stroke:#000000;stroke-width:0.7842;stroke-miterlimit:10;}
	.st3{fill:#FFFFFF;stroke:#000000;stroke-width:1.6371;stroke-miterlimit:10;}
	.st4{fill:#FFFFFF;stroke:#000000;stroke-width:1.5811;stroke-miterlimit:10;}
	.st5{fill:#FFFFFF;stroke:#000000;stroke-width:1.75;stroke-miterlimit:10;}
</style>
<path class="st0" d="M440.5,224.8c0,119.2-96.6,215.8-215.8,215.8S9,343.9,9,224.8S97.6,9,224.8,9C343.9,9,440.5,105.6,440.5,224.8z
	"/>
<line class="st1" x1="96.4" y1="267.3" x2="357.9" y2="267.3"/>
<line class="st1" x1="206.1" y1="266.6" x2="230.5" y2="226.6"/>
<line class="st1" x1="268.1" y1="232.2" x2="225.9" y2="232.9"/>
<line class="st1" x1="248.1" y1="268.3" x2="272.1" y2="226.8"/>
<line class="st1" x1="265.6" y1="226.6" x2="289.1" y2="267.3"/>
<line class="st1" x1="269" y1="230.6" x2="269" y2="267.3"/>
<line class="st1" x1="225.9" y1="232.9" x2="220.6" y2="227.1"/>
<line class="st1" x1="228" y1="235.4" x2="208.4" y2="267.3"/>
<line class="st1" x1="231.9" y1="249" x2="220.6" y2="267.3"/>
<line class="st1" x1="233.4" y1="251.4" x2="223.6" y2="267.3"/>
<line class="st1" x1="234.4" y1="254.5" x2="226.6" y2="267.3"/>
<line class="st1" x1="231.1" y1="245.3" x2="217.6" y2="267.3"/>
<line class="st1" x1="228.5" y1="238.9" x2="211.1" y2="267.3"/>
<line class="st1" x1="229.6" y1="242.2" x2="214.5" y2="266.8"/>
<line class="st1" x1="234.7" y1="258.1" x2="229" y2="267.4"/>
<line class="st1" x1="234.9" y1="261.9" x2="231.6" y2="267.4"/>
<path class="st2" d="M309.9,158c-4.8-2.3-9.9-2.7-14.7-1.6c0,0.1,0,0.1,0,0.2c2,0.3,3.9,0.8,5.8,1.7c9.3,4.5,12.1,15.9,8.1,24.8
	c-4.2,9.2-16.1,12.2-24.8,8.1c-0.8-0.4-1.5-0.8-2.2-1.3c-0.1,0-0.1,0.1-0.2,0.1c2.1,3.3,5.1,6,8.9,7.8c11,5.3,24.2,0.7,29.4-10.3
	C325.5,176.4,320.9,163.3,309.9,158z"/>
<g>
	<line class="st3" x1="183.6" y1="172" x2="183.6" y2="267.7"/>
	<g>
		<path class="st4" d="M183.9,168.1c0,9.6,7,17.3,15.7,17.3"/>
		<path class="st4" d="M183.9,168.1c-0.6,9.5-8.1,16.6-16.8,15.9"/>
	</g>
	<g>
		<path class="st3" d="M183.7,178c0,10.8,7.9,19.5,17.7,19.5"/>
		<path class="st3" d="M183.7,178c-0.7,10.7-9.1,18.7-18.9,17.9"/>
	</g>
	<g>
		<path class="st3" d="M183.6,187.1c0,13.6,10,24.5,22.3,24.5"/>
		<path class="st3" d="M183.6,187.1c-0.9,13.5-11.5,23.6-23.8,22.5"/>
	</g>
	<g>
		<path class="st3" d="M183.5,198.7c0,15.4,11.3,27.8,25.3,27.8"/>
		<path class="st3" d="M183.5,198.7c-1,15.3-13.1,26.8-27,25.6"/>
	</g>
</g>
<g>
	<line class="st5" x1="132" y1="115.8" x2="132" y2="266.7"/>
	<g>
		<path class="st5" d="M132.4,109.7c0,15.1,9.3,27.3,20.8,27.3"/>
		<path class="st5" d="M132.4,109.7c-0.8,15-10.7,26.2-22.2,25"/>
	</g>
	<g>
		<path class="st5" d="M132.2,125.3c0,17,10.4,30.7,23.4,30.7"/>
		<path class="st5" d="M132.2,125.3c-0.9,16.9-12.1,29.5-24.9,28.2"/>
	</g>
	<g>
		<path class="st5" d="M132,139.6c0,21.4,13.2,38.7,29.5,38.7"/>
		<path class="st5" d="M132,139.6c-1.1,21.3-15.2,37.2-31.5,35.5"/>
	</g>
	<g>
		<path class="st5" d="M131.8,157.9c0,24.3,15,43.9,33.4,43.9"/>
		<path class="st5" d="M131.8,157.9c-1.3,24.2-17.3,42.2-35.7,40.3"/>
	</g>
</g>
<g>
	<path d="M103.1,302.9c0,0.1,0.1,0.2,0.3,0.2c0.2,0,0.3,0,0.5,0c0.4,0.2,0.9,0.3,1.3,0.5c0.4,0.2,0.9,0.3,1.3,0.5c0.1,0,0.3,0,0.4,0
		c0.1,0,0.3,0,0.5,0.1c0.3,0.1,0.5,0.2,0.7,0.3c0.2,0.1,0.4,0.2,0.6,0.3c0.5,0.2,0.9,0.5,1.3,0.8c0.4,0.3,0.8,0.6,1.1,1
		c0.2,0.3,0.3,0.5,0.5,0.8c0.1,0.3,0.4,0.5,0.6,0.7c0.3,0.7,0.6,1.5,0.9,2.3c0.3,0.8,0.4,1.6,0.4,2.6c0,0.4,0,0.7-0.1,0.9
		c-0.1,0.3-0.2,0.5-0.4,0.8c-0.2,0.4-0.4,0.8-0.5,1.2c-0.2,0.4-0.4,0.8-0.6,1.1c-0.1,0.1-0.2,0.2-0.3,0.3c-0.1,0.1-0.2,0.2-0.2,0.4
		c-0.3,0.1-0.5,0.3-0.6,0.5c-0.1,0.2-0.3,0.4-0.5,0.6c-0.2,0.4-0.5,0.8-0.9,1.1c-0.4,0.3-0.7,0.6-1.1,1c-0.3,0.2-0.6,0.4-0.9,0.6
		c-0.3,0.2-0.6,0.5-0.8,0.7c-0.6,0.3-1.2,0.6-1.9,0.9c-0.6,0.3-1.3,0.6-1.9,0.9c-0.2,0-0.4,0.1-0.6,0.2c-0.2,0.1-0.4,0.1-0.6,0.1
		c-0.3,0.2-0.6,0.3-0.9,0.3c-0.4,0-0.7,0.2-0.9,0.4c-0.1,0-0.2,0-0.2,0c-0.1,0-0.2,0-0.2-0.1c-0.1,0.2-0.3,0.2-0.4,0.3
		c-0.2,0-0.4,0-0.6,0.1c-0.3,0-0.5,0-0.8,0.1c-0.3,0.1-0.6,0.2-0.9,0.2c-0.1,0-0.1,0-0.2,0c-0.1,0-0.1,0-0.2,0
		c-0.3,0.1-0.4,0.1-0.6,0.2c-0.1,0-0.3,0.1-0.6,0c-0.2,0-0.4,0-0.5,0c-0.2,0.1-0.4,0.1-0.5,0.1c-0.1,0-0.3,0-0.4,0
		c-0.1,0-0.3,0-0.4,0c-0.2,0-0.3,0-0.5,0.1c-0.1,0-0.2,0.1-0.3,0.1c-0.1,0-0.2,0-0.2-0.1c0,0-0.1-0.1-0.2-0.2
		c-0.2-0.1-0.3-0.1-0.4-0.2s-0.2-0.2-0.2-0.3c-0.2-0.6-0.1-0.9,0.4-1.1c0.4-0.2,0.9-0.3,1.5-0.3c0-0.1-0.1-0.1-0.3-0.1
		c-0.2-0.2-0.3-0.3-0.4-0.5s-0.2-0.3-0.4-0.5c0-0.2,0-0.3,0-0.3c0-0.1,0-0.1-0.1-0.2c0.2-0.3,0.3-0.7,0.4-1.1
		c0.1-0.4,0.2-0.9,0.3-1.3c0.1-0.3,0.2-0.6,0.3-0.9c0.1-0.3,0.2-0.6,0.4-0.9c0.2-0.6,0.4-1.2,0.6-1.7c0.2-0.6,0.4-1.2,0.6-1.7
		c0.2-0.6,0.4-1.2,0.7-1.7c0.2-0.6,0.4-1.2,0.6-1.7c0.2-0.6,0.4-1.1,0.6-1.7c0.2-0.6,0.5-1.1,0.7-1.7c0.3-0.5,0.5-1.1,0.6-1.7
		c0.2-0.6,0.4-1.2,0.7-1.8c0.1-0.3,0.2-0.5,0.4-0.8c0.1-0.3,0.2-0.6,0.3-0.9c0.1-0.3,0.2-0.5,0.4-0.8c0.1-0.3,0.2-0.6,0.4-0.8
		c0.2-0.5,0.4-1.1,0.6-1.7c0.2-0.6,0.4-1.2,0.6-1.8c0.1-0.3,0.2-0.6,0.3-0.9c0.1-0.3,0.2-0.6,0.2-0.9c0.1-0.4,0.3-0.7,0.4-1
		c0.1-0.3,0.2-0.6,0.3-1c0.1-0.3,0.2-0.5,0.4-0.7c0.2-0.2,0.2-0.5,0.1-0.7c0-0.1,0.1-0.1,0.2-0.1c0.1,0,0.1-0.1,0.1-0.1
		c0-0.2,0.1-0.4,0.2-0.6c0.1-0.2,0.2-0.3,0.1-0.5c0.3-0.3,0.4-0.6,0.5-1.1c0.1-0.4,0.2-0.9,0.4-1.3c0.1-0.3,0.2-0.5,0.4-0.8
		c0.2-0.3,0.2-0.6,0-1c0.1-0.1,0.2-0.1,0.2-0.2c0.1-0.1,0.1-0.2,0.1-0.4c0.3-0.2,0.5-0.4,0.9-0.4s0.6-0.1,0.9,0
		c0.3,0.1,0.5,0.2,0.6,0.4s0.2,0.5,0.2,0.8c-0.1,0.2-0.2,0.3-0.2,0.4c-0.1,0.1-0.1,0.3-0.1,0.5c0.5-0.2,1.2-0.4,2-0.6
		c0.8-0.2,1.5-0.3,2.1-0.4c1.3,0.1,2.4,0.3,3.5,0.6c1.1,0.2,2.1,0.6,2.9,1.2c0.2,0.3,0.4,0.5,0.6,0.7c0.2,0.2,0.3,0.5,0.4,0.8
		c-0.1,0.2-0.1,0.3,0,0.5c0.1,0.2,0.1,0.3,0.1,0.5c-0.1,0.4-0.2,0.8-0.2,1.2c0,0.3-0.1,0.7-0.4,1c-0.1,0.1-0.1,0.1-0.2,0.2
		c-0.1,0-0.1,0.1-0.1,0.2l-0.2,0.5c-0.1,0.2-0.3,0.4-0.6,0.6c-0.2,0.2-0.4,0.4-0.6,0.6c0,0.1-0.1,0.1-0.1,0.1c0,0-0.1,0-0.1,0
		c-0.1,0.1-0.2,0.2-0.2,0.3c0,0-0.1,0.1-0.2,0.3c-0.2,0.1-0.4,0.2-0.5,0.3c-0.2,0.1-0.3,0.2-0.5,0.3c-0.8,0.8-1.8,1.4-2.8,1.9
		c-1,0.5-2.1,1-3.1,1.6c-0.8,0.3-1.6,0.6-2.3,1c-0.7,0.3-1.5,0.7-2.2,1c-0.2,0-0.4,0.1-0.6,0.1S103.1,302.7,103.1,302.9z M95,323.6
		c0.1-0.1,0.3-0.1,0.4-0.1c0.1,0,0.3,0,0.4,0c0.3-0.1,0.6-0.2,0.9-0.3c0.3-0.1,0.6-0.2,0.9-0.3c0.5-0.1,0.9-0.2,1.2-0.3
		c0.3-0.1,0.7-0.2,1.1-0.3c0.8-0.3,1.6-0.6,2.3-0.9c0.7-0.3,1.5-0.7,2.2-1c1.4-0.9,2.6-1.9,3.6-3.1s1.9-2.4,2.7-3.9
		c0.2-0.7,0.2-1.4,0.2-2.1c-0.1-0.7-0.2-1.3-0.4-1.9c-0.2-0.6-0.5-1.1-0.9-1.6c-0.4-0.5-0.7-0.9-1.1-1.2c-0.4-0.2-0.8-0.4-1.2-0.6
		c-0.4-0.2-1-0.3-1.6-0.4c-0.7-0.3-1.4-0.6-2.2-0.7c-0.8-0.2-1.6-0.3-2.5-0.5c-0.3,0.6-0.6,1.2-0.9,1.9c-0.3,0.7-0.5,1.3-0.6,2
		c-0.2,0.4-0.4,0.7-0.5,1.1c-0.2,0.4-0.3,0.8-0.4,1.1c-0.1,0.2-0.1,0.3-0.1,0.5c0,0.2,0,0.3-0.1,0.5c-0.1,0.4-0.3,0.8-0.5,1.2
		c-0.2,0.4-0.3,0.8-0.4,1.2c-0.4,0.7-0.7,1.4-0.9,2.2c-0.3,0.7-0.6,1.5-0.9,2.2c0,0.1,0,0.2,0,0.2c0.1,0,0,0.1,0,0.2
		c-0.3,0.6-0.5,1.2-0.8,1.9s-0.5,1.3-0.7,2c-0.1,0.1-0.1,0.1,0.1,0c0.1,0,0.1,0,0.1,0c-0.3,0.2-0.5,0.5-0.5,0.8
		c-0.1,0.3-0.3,0.6-0.7,0.6c0.3,0,0.6,0,0.9-0.1C94.5,323.7,94.8,323.6,95,323.6z M105.4,299.3c0.9-0.4,1.9-0.8,2.8-1.2
		c0.9-0.4,1.8-0.8,2.6-1.3c0.3-0.2,0.6-0.4,0.8-0.6c0.3-0.2,0.5-0.4,0.8-0.6c0.5-0.3,0.9-0.7,1.4-1c0.5-0.4,0.9-0.8,1.2-1.2
		c0.4-0.4,0.6-0.9,0.8-1.4c0.2-0.5,0.3-1.1,0.2-1.8c-0.2-0.1-0.3-0.2-0.5-0.3c-0.1-0.1-0.3-0.2-0.5-0.3c-0.1-0.1-0.2-0.1-0.4,0
		c-0.1,0-0.3,0-0.4,0c-0.4-0.1-0.8-0.2-1.2-0.3c-0.4-0.1-0.8-0.2-1.2-0.1c-0.2,0-0.5,0-0.7,0c-0.3,0-0.5,0-0.8,0.1
		c-0.4,0.1-0.8,0.2-1.2,0.3c-0.4,0.2-0.9,0.3-1.3,0.3c-0.4,0.1-0.8,0.1-1.1,0.2c-0.3,0-0.7,0.2-0.9,0.3c0,0.3-0.1,0.5-0.1,0.6
		c-0.1,0.1-0.1,0.3-0.1,0.6c-0.3,0.4-0.5,0.8-0.5,1.3c-0.3,0.4-0.4,0.9-0.6,1.4c-0.1,0.5-0.3,1-0.6,1.6c-0.1,0.6-0.2,1.2-0.4,1.8
		s-0.4,1.2-0.5,1.7c-0.1,0.2-0.2,0.4-0.3,0.6c-0.1,0.2-0.1,0.4-0.2,0.6c0.5-0.2,1-0.4,1.5-0.6C104.4,299.8,104.9,299.6,105.4,299.3z
		"/>
	<path d="M128.4,315c-0.5,0.6-1,1.3-1.7,2c-0.7,0.7-1.4,1.4-2.1,1.9c-0.5,0.5-1.1,1-1.7,1.5c-0.6,0.5-1.3,0.9-2.1,1.1
		c-0.4,0.1-0.8,0.1-1.1,0c-0.3-0.1-0.7-0.2-0.9-0.3c-0.6-0.2-1.1-0.7-1.4-1.4c-0.3-0.2-0.5-0.5-0.6-0.9c-0.1-0.4-0.1-0.8-0.1-1.2
		c0-0.4,0.1-0.9,0.2-1.3c0.1-0.4,0.2-0.8,0.4-1.1c0.8-1.6,1.9-2.9,3.3-4c1.4-1.1,2.9-2,4.6-2.7c0.1,0.1,0.3,0.1,0.4,0.1
		c0.1,0,0.3,0,0.4,0.1c0.1,0,0.1,0.1,0.2,0.1c0.1,0,0.1,0.1,0.2,0.1c0.2,0.1,0.4,0.1,0.6,0.1c0.2,0,0.4,0.1,0.6,0.1
		c0.3,0.1,0.4,0.2,0.6,0.4c0.1,0.2,0.3,0.3,0.5,0.4c0.1,0.1,0.1,0.1,0.1,0.1c0,0-0.1,0.1-0.1,0.1c0.5-0.3,1.2-0.3,1.9-0.2
		c0.7,0.1,1.2,0.4,1.4,0.9c0.3,0.5,0.3,1.1,0.1,1.8c-0.2,0.7-0.4,1.3-0.6,1.8c-0.1,0.3-0.2,0.5-0.4,0.7c-0.1,0.2-0.3,0.5-0.4,0.7
		c-0.1,0.3-0.2,0.6-0.3,0.9c-0.1,0.3-0.2,0.6-0.4,0.9c-0.1,0.3-0.2,0.5-0.3,0.8c-0.1,0.3-0.2,0.6-0.2,0.9c0,0.3,0,0.6,0.1,0.9
		c0.1,0.3,0.2,0.5,0.5,0.6c0.5,0.2,1.1,0.2,1.5,0c0.5-0.2,1-0.4,1.5-0.6c1-0.4,1.9-0.8,2.7-1.2c0.8-0.4,1.6-0.8,2.3-1.4
		c1.1-0.8,2.1-1.6,3.1-2.3c1-0.7,1.9-1.5,2.9-2.3c0.1-0.2,0.3-0.3,0.4-0.4c0.1-0.1,0.3-0.2,0.5-0.3c0.1-0.3,0.3-0.4,0.6-0.6
		c0.3-0.1,0.7-0.4,1.1-0.8c0.2-0.2,0.4-0.4,0.6-0.6c0.2-0.2,0.5-0.2,0.9-0.1c0,0.2,0,0.2,0.2,0.2c0,0.2,0,0.2,0,0.1
		c0-0.1-0.1,0-0.1,0.1c0.1,0.1,0.2,0.2,0.2,0.3c0,0.1,0.1,0.1,0.3,0.2c-0.1,0.4-0.3,0.6-0.5,0.7c-0.3,0.1-0.6,0.3-0.8,0.5
		c-0.1,0.1-0.2,0.1-0.2,0.2c-0.1,0.1-0.1,0.2-0.1,0.3c-0.6,0.7-1.3,1.4-1.9,2c-0.6,0.6-1.3,1.2-1.9,1.7c-0.6,0.5-1.3,1.1-2,1.6
		c-0.7,0.5-1.4,1.2-2.2,1.8c-0.5,0.3-1.1,0.6-1.6,1c-0.5,0.3-1.1,0.6-1.7,0.9c-0.5,0.1-1,0.2-1.4,0.4c-0.4,0.2-0.9,0.3-1.4,0.5
		c0,0-0.1,0-0.1,0.1c-0.4,0-0.8-0.1-1.3-0.1c-0.5,0-0.9-0.1-1.3-0.3c-0.6-0.2-1.1-0.5-1.4-0.8c-0.4-0.3-0.7-0.7-1-1.2
		c-0.3-0.4-0.5-0.9-0.5-1.5c-0.1-0.5-0.1-1.1,0-1.6c0.1-0.5,0.2-1.1,0.3-1.6C128,316,128.2,315.5,128.4,315z M121.3,317.9
		c1.1-0.9,2.1-1.9,3-3c0.9-1.1,1.9-2.1,2.8-3.2c0-0.2-0.1-0.4-0.2-0.6c-0.1-0.2-0.1-0.4-0.2-0.6c-0.2,0.1-0.4,0.2-0.6,0.2
		c-0.3,0-0.5,0.1-0.6,0.2c-0.1,0.1-0.2,0.1-0.2,0.2c-0.1,0.1-0.1,0.2-0.2,0.2c-0.1,0.1-0.2,0.1-0.4,0.2c-0.1,0.1-0.3,0.1-0.4,0.2
		c-0.5,0.3-0.9,0.6-1.3,0.9c-0.4,0.3-0.8,0.6-1.2,1c-0.3,0.3-0.5,0.5-0.6,0.7c-0.2,0.2-0.3,0.4-0.5,0.7c-0.1,0.1-0.1,0.2-0.2,0.3
		c-0.1,0.1-0.1,0.2-0.2,0.3c-0.7,1-1.1,2.3-1.2,3.9c0.5-0.2,0.9-0.4,1.2-0.7C120.6,318.5,120.9,318.2,121.3,317.9z"/>
	<path d="M171.3,311c-0.1,0.2-0.2,0.4-0.4,0.7c-0.2,0.3-0.4,0.5-0.6,0.8c-0.2,0.3-0.4,0.5-0.6,0.8c-0.2,0.3-0.4,0.5-0.5,0.7
		c-0.6,0.6-1.3,1.3-2.1,2c-0.8,0.8-1.8,1.5-2.8,2.2c-1,0.7-2,1.4-3.1,2c-1.1,0.6-2.1,1.1-3,1.3c-1.1,0.4-2.2,0.7-3.4,1
		c-1.1,0.3-2.4,0.4-3.8,0.1c-0.2,0-0.4-0.1-0.6-0.1c-0.2-0.1-0.5-0.1-0.7-0.2c-1.1-0.3-2-0.6-2.7-1c-0.7-0.4-1.3-1-1.9-1.8
		c-0.2-0.4-0.4-0.7-0.7-1.1c-0.2-0.4-0.4-0.8-0.5-1.3c-0.1-0.7,0-1.3,0.2-1.9c0.2-0.6,0.4-1.1,0.6-1.6c0.5-0.9,1.1-1.6,1.8-2.1
		c0.7-0.5,1.6-1.1,2.6-1.5c0.2-0.1,0.4-0.2,0.7-0.3c0.2-0.1,0.5-0.2,0.7-0.2c0.3,0,0.6,0,0.7,0.1c0.2,0.1,0.4,0.1,0.8,0
		c0.2,0.3,0.5,0.4,0.9,0.5c0.4,0.1,0.8,0.3,1.1,0.5l0.5,0.5c0.1,0.1,0.2,0.1,0.3,0.2c0.1,0,0.2,0.1,0.2,0.2c0.1,0.2,0.2,0.4,0.2,0.6
		c0.1,0.2,0,0.4,0,0.6c-0.2,0.1-0.4,0.1-0.5,0.2s-0.3,0.1-0.5,0.2c-0.3-0.1-0.6-0.3-0.7-0.6c-0.1-0.3-0.3-0.5-0.5-0.7
		c-0.6-0.2-1.2-0.1-1.8,0.2s-1.1,0.6-1.5,0.8c-0.4,0.2-0.8,0.5-1.2,0.8c-0.4,0.3-0.8,0.6-1.1,0.8c-0.3,0.5-0.5,1.1-0.8,1.7
		c-0.3,0.6-0.4,1.2-0.3,1.9c0.1,0.5,0.3,1,0.6,1.4c0.3,0.4,0.7,0.7,1.1,1c0.7,0.3,1.5,0.4,2.2,0.5c0.8,0,1.5,0,2.3-0.1
		c0.8-0.1,1.5-0.3,2.2-0.5s1.4-0.4,2-0.7c1.1-0.4,2.2-0.9,3.5-1.6c1.2-0.7,2.4-1.5,3.6-2.4c1.2-0.8,2.3-1.7,3.3-2.6
		c1-0.9,1.9-1.7,2.5-2.3c0.3,0.1,0.5,0.1,0.6,0c0.1-0.1,0.3-0.1,0.5-0.1c0.2,0,0.2,0.1,0.2,0.2c-0.1,0.1-0.1,0.2-0.2,0.2
		c0.1,0.1,0.1,0.1,0.2,0.1C171.3,310.8,171.3,310.8,171.3,311z"/>
	<path d="M173,315c-0.4,0.6-0.8,1.2-1.2,1.7c-0.5,0.5-0.9,1.1-1.2,1.8c-0.1,0.2-0.3,0.4-0.4,0.6c-0.1,0.2-0.2,0.4-0.4,0.6
		c-0.1,0.2-0.2,0.3-0.3,0.4c-0.1,0.1-0.3,0.2-0.4,0.4c-0.1,0.2-0.2,0.3-0.2,0.5c-0.1,0.2-0.1,0.3-0.2,0.5c-0.1,0.3-0.3,0.5-0.6,0.7
		c-0.2,0.2-0.4,0.4-0.5,0.7c-0.2,0.2-0.5,0.3-0.8,0.4c-0.3,0.1-0.7,0-1.1-0.3c-0.1-0.1-0.1-0.1-0.2-0.2c0-0.1-0.1-0.2-0.2-0.3
		c-0.2-0.2-0.3-0.3-0.5-0.4c-0.1-0.1-0.2-0.3-0.2-0.4c0-0.2,0-0.3,0.1-0.4c0.1-0.1,0.2-0.3,0.3-0.4c0-1.1,0.2-2.1,0.6-3
		c0.4-0.9,0.8-1.8,1.2-2.7c0.9-2.1,2-4.1,3.1-6c1.1-1.9,2.3-3.7,3.5-5.6l2.6-4.1l0.9-1.4c0.6-0.9,1.2-1.9,1.8-2.8
		c0.6-0.9,1.2-1.9,1.8-2.8c0.4-0.3,0.7-0.6,0.9-0.9c0.3-0.3,0.6-0.6,1-0.9c0.5,0.1,0.8,0,1-0.2c0.2,0.1,0.4,0.1,0.6,0
		c0.2-0.1,0.4-0.1,0.6-0.1c0.3,0,0.5,0.1,0.8,0.3s0.4,0.3,0.5,0.5c-0.1,0.1-0.1,0.3-0.1,0.4c0,0.1,0,0.3,0,0.4
		c0,0.1-0.1,0.2-0.2,0.3c-0.1,0.1-0.2,0.2-0.2,0.3c-0.1,0.1-0.1,0.3-0.1,0.4c0,0.1,0,0.3-0.1,0.4c-0.1,0.2-0.2,0.3-0.3,0.5
		c-0.1,0.1-0.2,0.3-0.3,0.5c0,0.1,0,0.1,0,0.2c0,0.1,0,0.1,0,0.2c0,0.1-0.1,0.1-0.1,0.2c-0.1,0.1-0.1,0.2-0.2,0.2l-0.2,0.6
		c-0.1,0.2-0.3,0.4-0.5,0.5c-0.2,0.2-0.3,0.3-0.4,0.5c-0.2,0.3-0.3,0.6-0.4,1c-0.1,0.4-0.2,0.7-0.4,1c-0.1,0.2-0.2,0.3-0.4,0.5
		c-0.1,0.2-0.3,0.3-0.4,0.5c-0.4,0.5-0.8,1-1.1,1.6c-0.3,0.6-0.7,1.1-1.1,1.6c-0.3,0.4-0.6,0.7-0.9,1c-0.3,0.3-0.6,0.6-0.8,1
		c-0.5,0.7-1.1,1.2-1.7,1.7c-0.6,0.5-1.2,1.1-1.6,1.8c-0.1,0.1-0.3,0.3-0.6,0.6c-0.2,0.3-0.4,0.5-0.5,0.6c-0.3,0.2-0.5,0.4-0.6,0.6
		c-0.1,0.2-0.3,0.4-0.6,0.6c-0.5,0.6-0.9,1.2-1.3,1.9c-0.4,0.7-0.7,1.4-1,2.3c0.8-1,1.7-1.9,2.7-2.9c1-1,2-1.9,3.1-2.7
		c0.3-0.2,0.6-0.4,0.8-0.6s0.6-0.4,0.9-0.5c0.3-0.1,0.6-0.3,0.8-0.4c0.3-0.1,0.6-0.3,1-0.4c0.4-0.1,0.8-0.3,1.2-0.4
		c0.4-0.1,0.9-0.2,1.5-0.1c0.1,0,0.2,0,0.3,0.1s0.2,0.1,0.4,0.1c0.2,0,0.4,0,0.7,0c0.2,0,0.4,0.1,0.6,0.2c0.1,0.4,0.3,0.7,0.4,0.9
		c0.1,0.3,0.1,0.6-0.1,1c-0.1,0.3-0.2,0.4-0.2,0.5c-0.1,0.1-0.2,0.2-0.4,0.4c-0.1,0.1-0.1,0.2-0.2,0.3c0,0.1-0.1,0.2-0.2,0.3
		c0,0.1-0.1,0.1-0.2,0.2c-0.1,0-0.2,0.1-0.2,0.2c-0.3,0.3-0.6,0.6-0.9,0.9c-0.3,0.3-0.7,0.6-1.1,0.8l-0.5,0.2
		c-0.2,0.1-0.3,0.2-0.4,0.3c-0.1,0.1-0.3,0.1-0.5,0.1c-0.5,0.3-1,0.4-1.6,0.6c-0.6,0.1-1.1,0.3-1.6,0.5c-0.1-0.1-0.3-0.1-0.5-0.1
		c-0.2,0-0.4,0-0.5,0c0.1,0.3,0.3,0.5,0.5,0.6c0.2,0.1,0.3,0.3,0.4,0.6c0.1,0.3,0.2,0.6,0.2,0.9s0,0.6,0.1,0.8
		c0.2,0.6,0.5,1.2,0.9,1.8c0.4,0.6,0.9,1,1.5,1.3c0.1,0.1,0.3,0.1,0.5,0.2c0.2,0.1,0.4,0.1,0.6,0.2c0.4,0.1,0.7,0.2,1,0.3
		c0.3,0.1,0.7,0.1,1.1,0c0.8-0.2,1.6-0.4,2.4-0.8c0.8-0.4,1.5-0.7,2.3-1.2c1.5-0.8,2.8-1.7,3.9-2.6c1.1-0.9,2.2-1.9,3.3-3.1
		c0.2-0.3,0.5-0.5,0.7-0.8c0.3-0.3,0.5-0.5,0.8-0.8c0.3-0.3,0.6-0.6,1-0.9c0.4-0.3,0.7-0.5,0.9-0.6c0.2,0,0.4,0.1,0.5,0.2
		c0.2,0.1,0.3,0.2,0.5,0.2c0.1,0.2,0,0.3-0.1,0.3c-0.1,0-0.2,0.1-0.1,0.2c0.1,0.1,0.2,0.2,0.4,0.2c0.1,0,0.3,0,0.5,0.1l0.1,0v0.1
		c-0.1,0.3-0.3,0.6-0.6,0.8c-0.3,0.2-0.5,0.4-0.7,0.6c-0.6,0.9-1.3,1.8-2.1,2.6c-0.8,0.8-1.7,1.5-2.6,2.2c-0.4,0.3-0.8,0.6-1.2,0.8
		c-0.4,0.3-0.8,0.5-1.2,0.8c-0.4,0.3-0.9,0.5-1.3,0.8c-0.4,0.3-0.8,0.5-1.3,0.7c-0.8,0.4-1.7,0.7-2.7,1c-1,0.3-2,0.4-3,0.5
		c-1.3,0-2.4-0.2-3.3-0.6c-1-0.5-1.9-1-2.6-1.8c-0.5-0.4-1-1-1.3-1.6c-0.4-0.6-0.7-1.3-0.9-1.9c-0.1-0.3-0.1-0.6-0.2-1.1
		c-0.1-0.5-0.2-0.8-0.4-0.8c-0.2-0.1-0.3,0-0.4,0.2C173.2,314.9,173.1,315,173,315z M182.2,308.4c-0.9,0.3-1.7,0.6-2.4,1
		c-0.7,0.4-1.3,0.9-2,1.3c-0.5,0.4-0.9,0.7-1.3,1.1c-0.4,0.4-0.8,0.7-1.2,1.2c1.7-0.4,3.1-0.9,4.3-1.7c1.2-0.7,2.2-1.7,2.9-2.9
		C182.3,308.4,182.2,308.4,182.2,308.4z M181.7,293.7c-0.1,0.2-0.1,0.3-0.2,0.5c-0.1,0.2-0.1,0.3-0.2,0.5l-0.6,0.6
		c-0.2,0.3-0.3,0.5-0.4,0.7c-0.1,0.2-0.2,0.5-0.4,0.7c-0.1,0.2-0.2,0.3-0.4,0.5c-0.2,0.2-0.3,0.3-0.4,0.5c-0.1,0.2-0.1,0.3-0.2,0.5
		c-0.1,0.2-0.1,0.4-0.2,0.6c-0.2,0.4-0.4,0.7-0.6,1c-0.2,0.3-0.4,0.7-0.6,1c-0.2,0.4-0.4,0.7-0.5,1.1c-0.2,0.4-0.3,0.7-0.5,1
		c0.8-0.9,1.5-1.8,2.2-3c0.7-1.1,1.3-2.2,1.9-3.2c0.4-0.6,0.8-1.3,1.3-2c0.4-0.7,0.8-1.4,1-2.2c-0.2,0.2-0.4,0.3-0.7,0.5
		C182.1,293.3,181.9,293.5,181.7,293.7z"/>
	<path d="M221.7,311c-0.1,0.2-0.2,0.4-0.4,0.7c-0.2,0.3-0.4,0.5-0.6,0.8c-0.2,0.3-0.4,0.5-0.6,0.8c-0.2,0.3-0.4,0.5-0.5,0.7
		c-0.6,0.6-1.3,1.3-2.1,2c-0.8,0.8-1.8,1.5-2.8,2.2c-1,0.7-2,1.4-3.1,2c-1.1,0.6-2.1,1.1-3,1.3c-1.1,0.4-2.2,0.7-3.4,1
		c-1.1,0.3-2.4,0.4-3.8,0.1c-0.2,0-0.4-0.1-0.6-0.1c-0.2-0.1-0.5-0.1-0.7-0.2c-1.1-0.3-2-0.6-2.7-1c-0.7-0.4-1.3-1-1.9-1.8
		c-0.2-0.4-0.4-0.7-0.7-1.1c-0.2-0.4-0.4-0.8-0.5-1.3c-0.1-0.7,0-1.3,0.2-1.9c0.2-0.6,0.4-1.1,0.6-1.6c0.5-0.9,1.1-1.6,1.8-2.1
		c0.7-0.5,1.6-1.1,2.6-1.5c0.2-0.1,0.4-0.2,0.7-0.3c0.2-0.1,0.5-0.2,0.7-0.2c0.3,0,0.6,0,0.7,0.1c0.2,0.1,0.4,0.1,0.8,0
		c0.2,0.3,0.5,0.4,0.9,0.5c0.4,0.1,0.8,0.3,1.1,0.5l0.5,0.5c0.1,0.1,0.2,0.1,0.3,0.2c0.1,0,0.2,0.1,0.2,0.2c0.1,0.2,0.2,0.4,0.2,0.6
		c0.1,0.2,0,0.4,0,0.6c-0.2,0.1-0.4,0.1-0.5,0.2s-0.3,0.1-0.5,0.2c-0.3-0.1-0.6-0.3-0.7-0.6c-0.1-0.3-0.3-0.5-0.5-0.7
		c-0.6-0.2-1.2-0.1-1.8,0.2s-1.1,0.6-1.5,0.8c-0.4,0.2-0.8,0.5-1.2,0.8c-0.4,0.3-0.8,0.6-1.1,0.8c-0.3,0.5-0.5,1.1-0.8,1.7
		c-0.3,0.6-0.4,1.2-0.3,1.9c0.1,0.5,0.3,1,0.6,1.4c0.3,0.4,0.7,0.7,1.1,1c0.7,0.3,1.5,0.4,2.2,0.5c0.8,0,1.5,0,2.3-0.1
		c0.8-0.1,1.5-0.3,2.2-0.5s1.4-0.4,2-0.7c1.1-0.4,2.2-0.9,3.5-1.6c1.2-0.7,2.4-1.5,3.6-2.4c1.2-0.8,2.3-1.7,3.3-2.6
		c1-0.9,1.9-1.7,2.5-2.3c0.3,0.1,0.5,0.1,0.6,0c0.1-0.1,0.3-0.1,0.5-0.1c0.2,0,0.2,0.1,0.2,0.2c-0.1,0.1-0.1,0.2-0.2,0.2
		c0.1,0.1,0.1,0.1,0.2,0.1C221.7,310.8,221.7,310.8,221.7,311z"/>
	<path d="M242.2,310.2c0.1,0.1,0.1,0.1,0,0.2c-0.1,0.1-0.1,0.2-0.1,0.3c0,0.1,0,0.2,0.1,0.2s0.1,0,0.2,0.1c-0.1,0.3-0.3,0.6-0.6,1
		c-0.3,0.3-0.5,0.6-0.6,0.9c-0.1,0.1-0.3,0.3-0.6,0.6s-0.7,0.6-1.1,0.9c-0.4,0.3-0.8,0.6-1.2,0.8c-0.4,0.3-0.7,0.4-0.8,0.5
		c-0.4,0.4-0.8,0.6-1.2,0.7c-0.4,0.1-1,0.2-1.8,0.5c-0.7,0.3-1.3,0.4-1.9,0.6s-1.3,0.2-2.1,0.3c-0.4,0.4-0.8,0.9-1.2,1.3
		c-0.5,0.4-0.9,0.8-1.4,1.3c-0.5,0.4-1,0.9-1.5,1.3c-0.5,0.4-1.1,0.8-1.6,1.2c-0.3,0.2-0.6,0.3-0.9,0.3c-0.3,0-0.6,0.1-1,0.2
		c-0.2,0.1-0.4,0.1-0.6,0.2c-0.2,0.1-0.4,0.1-0.6,0.1c-0.3,0-0.7-0.2-1.2-0.5c-0.5-0.3-0.8-0.5-1-0.7c-0.3-0.3-0.6-0.5-1-0.7
		c-0.4-0.2-0.6-0.5-0.9-0.8c-0.3-0.4-0.4-0.8-0.5-1.4c-0.1-0.6-0.2-1.1-0.2-1.6c0-0.5,0.1-1,0.3-1.5c0.2-0.5,0.4-0.9,0.6-1.4
		c0.4-0.9,0.9-1.7,1.4-2.4c0.5-0.7,1.2-1.3,2.1-2c0.3-0.3,0.6-0.6,1-1c0.4-0.4,0.8-0.6,1.2-0.7c0.1,0,0.3,0,0.4,0
		c0.1,0,0.3,0.1,0.5,0.1c0.4-0.1,0.7-0.2,1-0.5c0.3-0.3,0.7-0.4,1.1-0.4c0.3,0,0.5,0.1,0.8,0.3c0.3,0.1,0.5,0.2,0.8,0.3
		c0.3,0.1,0.7,0.2,1,0.2c0.3,0,0.6,0.1,0.8,0.2c0.1,0,0.1,0.1,0.2,0.1c0.1,0.1,0.1,0.1,0.2,0.2c0.2,0.1,0.3,0.1,0.5,0.2
		c0.1,0.1,0.3,0.2,0.4,0.3c0.1,0.1,0.3,0.4,0.4,0.8c0.2,0.4,0.3,0.8,0.4,1c0,0.3,0,0.6,0,0.9c0,0.4,0,0.7-0.1,1.1
		c0,0.4-0.1,0.7-0.1,1.1c-0.1,0.3-0.1,0.6-0.2,0.8c1.1-0.3,2-0.6,2.9-0.9c0.8-0.3,1.6-0.6,2.2-1c0.6-0.4,1.2-0.8,1.8-1.2
		s1.1-0.9,1.6-1.4c0.1-0.2,0.3-0.3,0.4-0.5c0.1-0.2,0.2-0.3,0.4-0.4c0.3-0.1,0.5-0.1,0.8-0.1C241.7,310.4,242,310.4,242.2,310.2
		C242.2,310.3,242.2,310.3,242.2,310.2z M223.6,315.1c-0.4-0.4-0.7-0.7-0.8-1.1c-0.1-0.4-0.2-0.8-0.2-1.3c-0.2,0.2-0.4,0.4-0.5,0.7
		c-0.1,0.3-0.3,0.5-0.5,0.8c-0.2,0.2-0.4,0.4-0.5,0.6c-0.2,0.2-0.3,0.4-0.5,0.7c-0.2,0.3-0.3,0.5-0.4,0.8c-0.1,0.3-0.2,0.6-0.4,0.9
		c-0.1,0.4-0.3,0.7-0.5,1.1c-0.2,0.3-0.3,0.7-0.2,1.2c0,0.2,0.1,0.4,0.2,0.8c0.1,0.3,0.2,0.6,0.3,0.8c0.1,0.1,0.2,0.2,0.3,0.3
		c0.1,0.1,0.3,0.2,0.4,0.2c0.1,0.1,0.3,0.2,0.4,0.3c0.1,0.1,0.3,0.2,0.4,0.2c0.1,0,0.3,0,0.4,0c0.2,0,0.3-0.1,0.4-0.2
		c0.3-0.1,0.5-0.3,0.7-0.5c0.2-0.2,0.4-0.4,0.7-0.6c0.7-0.5,1.3-1,1.9-1.5c0.5-0.4,1-1,1.5-1.6v-0.1c-0.7-0.1-1.3-0.4-1.8-0.9
		C224.6,316.1,224.1,315.6,223.6,315.1z M229,313.1c-0.1-0.2-0.1-0.4-0.2-0.7c-0.1-0.3-0.1-0.6-0.2-0.8c-0.1-0.3-0.2-0.5-0.3-0.7
		c-0.1-0.2-0.3-0.3-0.4-0.4c-0.1-0.1-0.2-0.1-0.3,0c-0.1,0-0.2,0-0.2,0c-0.3,0.1-0.6,0.3-1,0.4c-0.3,0.1-0.6,0.3-0.9,0.6
		c-0.1,0.2-0.3,0.4-0.5,0.6c-0.2,0.3-0.3,0.5-0.3,0.7c0,0.3,0,0.6,0.2,1c0.2,0.3,0.4,0.6,0.5,0.8c0.3,0.3,0.7,0.6,1.2,0.7
		c0.5,0.2,1,0.3,1.5,0.4c0-0.4,0.2-0.7,0.4-1.1C228.9,314.1,229,313.7,229,313.1L229,313.1z"/>
	<path d="M248.9,316c-0.3,0.2-0.5,0.4-0.8,0.6c-0.2,0.2-0.5,0.5-0.8,0.7c-0.7,0.6-1.5,1.3-2.3,1.9c-0.8,0.6-1.7,1.2-2.6,1.7
		c-0.3,0.1-0.6,0.1-0.8,0.2s-0.5,0.1-0.8,0.1c-0.6,0-1.1-0.2-1.6-0.5c-0.4-0.3-0.8-0.6-1.1-0.9c-0.2-0.4-0.4-0.8-0.6-1.2
		c-0.2-0.4-0.3-0.8-0.1-1.5c0.1-0.6,0.3-1.2,0.6-1.8c0.3-0.6,0.5-1.1,0.8-1.7c0.3-0.6,0.6-1.2,1-1.9c0.4-0.7,0.8-1.2,1.1-1.6
		c0.3,0,0.6,0,0.8,0c0.3,0,0.5,0.1,0.7,0.2c0.1,0.2,0.2,0.5,0.2,0.7s0,0.5-0.1,0.7s-0.2,0.5-0.3,0.8c-0.1,0.3-0.2,0.5-0.4,0.7
		c-0.3,0.7-0.6,1.5-1,2.3c-0.4,0.8-0.7,1.6-1,2.2c-0.1,0.2-0.1,0.4-0.1,0.6c0,0.2,0.1,0.4,0.2,0.6c0.2-0.1,0.4-0.2,0.6-0.3
		c0.2-0.1,0.4-0.2,0.6-0.4c0.2-0.1,0.4-0.2,0.6-0.3c0.2-0.1,0.4-0.2,0.6-0.4c0.3-0.2,0.5-0.4,0.7-0.6c0.2-0.2,0.4-0.5,0.7-0.7
		c0.5-0.4,1-0.8,1.5-1.2c0.5-0.4,1-0.8,1.5-1.3c0.4-0.3,0.7-0.6,1-0.8c0.3-0.3,0.5-0.6,0.7-1c0.3-0.1,0.5-0.2,0.6-0.5
		c0.1-0.3,0.4-0.4,0.7-0.5c0.2,0,0.4,0,0.6,0c0.2,0,0.4,0,0.6,0c0.5-0.1,0.9,0,1.3,0.1s0.6,0.4,0.8,0.9c0,0.1,0.1,0.3,0.1,0.5
		s0,0.3-0.1,0.4c-0.1,0.2-0.2,0.4-0.4,0.7c-0.2,0.3-0.4,0.6-0.5,0.9c-0.1,0.2-0.1,0.4-0.1,0.6c0,0.2-0.1,0.3-0.3,0.4
		c-0.1,0.5-0.3,1-0.4,1.4c-0.2,0.5-0.2,1-0.2,1.7c0.1,0.3,0.2,0.6,0.4,0.9c0.2,0.3,0.4,0.5,0.7,0.6c0.1,0,0.3,0,0.6-0.1
		s0.5-0.2,0.8-0.3c0.3-0.1,0.5-0.3,0.8-0.4s0.4-0.2,0.5-0.3c1.2-0.7,2.2-1.3,3.1-1.8c0.9-0.5,1.8-1.1,2.7-1.7c0.5-0.4,1-0.7,1.4-1.1
		s0.9-0.7,1.4-1.1c0.4-0.3,0.8-0.7,1.3-1.1c0.4-0.4,0.9-0.8,1.3-1.2c0.1-0.1,0.3-0.3,0.4-0.4c0.2-0.1,0.3-0.2,0.4-0.2
		c0.2,0,0.4,0,0.7,0s0.5,0.1,0.7,0.1c0.1,0.1,0.1,0.2-0.1,0.2c-0.1,0-0.2,0.1-0.2,0.1c0,0.1,0.1,0.1,0.2,0.1c0.1,0,0.1,0.1,0.2,0.1
		c0,0,0.1,0,0.1,0.1c-0.1,0.1-0.1,0.3-0.1,0.4c-1.1,0.9-2.1,1.9-3.1,2.9c-1,1-2,1.9-3.1,2.9c-1.1,0.9-2.3,1.8-3.7,2.6
		s-2.9,1.6-4.8,2.3c-1,0.1-1.8-0.1-2.5-0.5c-0.6-0.4-1.2-1-1.7-1.7c-0.4-0.5-0.7-1.2-0.8-1.9C248.7,317.5,248.7,316.8,248.9,316z"/>
	<path d="M275.8,312.5c-0.6,0.4-1.2,0.7-1.9,1.1c-0.7,0.4-1.3,0.8-1.8,1.2c-1,0.8-1.9,1.7-2.9,2.6c-0.9,0.9-1.9,1.8-2.8,2.8
		c-0.4,0.4-0.9,0.9-1.3,1.3c-0.5,0.4-1,0.8-1.6,1.1c-0.3-0.2-0.5-0.4-0.5-0.6c0-0.3-0.2-0.5-0.5-0.7c-0.3-0.1-0.5-0.2-0.6-0.4
		c-0.1-0.2-0.1-0.5,0-0.8c0.3-1,0.8-2,1.4-2.9c0.6-0.9,1.2-1.8,1.8-2.8c0.3-0.4,0.5-0.9,0.8-1.4c0.2-0.5,0.5-1,0.7-1.5
		c0.3-0.6,0.4-1.2,0.5-1.8c0.1-0.6,0.2-1.2,0.4-1.8c0.2,0,0.4,0,0.6,0c0.2,0,0.4,0,0.5-0.1c0.1,0.2,0.3,0.3,0.6,0.3
		c0.3,0,0.4,0.1,0.5,0.4c0,0.3,0,0.5,0,0.8c0,0.3-0.1,0.6-0.1,1c0,0,0,0.1-0.1,0.1c-0.1,0-0.1,0.1-0.1,0.2c0,0.1,0,0.1,0.1,0.2
		c0,0.1,0,0.2,0,0.2c-0.1,0.4-0.3,0.8-0.6,1.3c-0.3,0.5-0.5,1-0.6,1.4c-0.1,0.4-0.3,0.9-0.5,1.2c-0.2,0.4-0.4,0.7-0.6,1
		c1-0.9,2.1-1.7,3.3-2.5c1.2-0.8,2.4-1.6,3.5-2.3c0.5-0.1,1-0.3,1.5-0.5c0.5-0.2,1-0.3,1.6-0.2c0.1,0,0.3,0,0.5,0.1
		c0.3,0.1,0.5,0.2,0.6,0.2c0.1,0.1,0.2,0.2,0.3,0.4c0.1,0.2,0.2,0.4,0.2,0.5c0.1,0.3,0,0.7-0.1,1c-0.1,0.4-0.3,0.7-0.4,1
		c-0.1,0.2-0.2,0.5-0.3,0.7c-0.1,0.2-0.2,0.5-0.4,0.7l-0.8,1.4c-0.3,0.5-0.6,0.9-0.8,1.4c-0.3,0.4-0.5,0.9-0.6,1.4
		c-0.1,0.3-0.1,0.6-0.1,1c0,0.4,0.2,0.6,0.4,0.6c0.2,0.1,0.4,0.1,0.6,0c0.2-0.1,0.4-0.2,0.6-0.2c0.6-0.2,1.1-0.4,1.6-0.6
		c0.4-0.3,0.9-0.5,1.4-0.7c1.1-0.7,2.2-1.4,3.3-2c1.2-0.6,2.2-1.3,3.3-2.1c0.7-0.5,1.4-1.1,2.2-1.7c0.8-0.6,1.6-1.2,2.3-1.8
		c0.2-0.2,0.4-0.4,0.6-0.6c0.2-0.2,0.4-0.4,0.7-0.6c0.3-0.2,0.5-0.3,0.8-0.3c0.3,0,0.6,0,1,0.2c0,0.2-0.1,0.3-0.2,0.3
		c-0.1,0-0.2,0.1-0.3,0.3c0.2,0,0.3,0.1,0.3,0.2c0,0.1,0.1,0.2,0.1,0.3c-0.2,0.2-0.3,0.4-0.5,0.7c-0.1,0.3-0.3,0.5-0.5,0.8
		c-0.3,0.3-0.6,0.6-1,0.8c-0.4,0.3-0.8,0.6-1.2,0.9l-1.1,0.9c-0.2,0.2-0.4,0.3-0.6,0.4c-0.2,0.1-0.4,0.2-0.6,0.4l-1.5,1.1
		c-0.7,0.5-1.5,0.9-2.2,1.4c-0.8,0.4-1.5,0.9-2.3,1.3c-0.5,0.3-1.1,0.6-1.7,1c-0.6,0.4-1.3,0.7-1.9,0.9c-0.1,0.1-0.3,0.1-0.5,0.1
		c-0.2,0-0.4,0-0.6,0.1c-0.3,0.1-0.7,0.2-1.1,0.3c-0.4,0.1-0.8,0.1-1.3,0c-0.3-0.1-0.5-0.2-0.6-0.3c-0.2-0.1-0.4-0.3-0.6-0.5
		c-0.5-0.3-0.9-0.6-1.3-1c-0.4-0.3-0.5-0.8-0.5-1.5c0-0.7,0.2-1.4,0.5-2.1c0.3-0.7,0.6-1.3,0.9-1.8c0.3-0.5,0.6-1,0.8-1.4
		C275.3,313.4,275.5,312.9,275.8,312.5z"/>
	<path d="M313.3,311.9c-0.1,0.3-0.3,0.6-0.7,0.9s-0.7,0.5-1.1,0.8c-0.4,0.4-0.7,0.6-1,0.9c-0.3,0.2-0.6,0.5-0.8,0.7
		c-0.3,0.2-0.6,0.4-0.9,0.6s-0.7,0.5-1.1,0.8c-1.3,0.9-2.5,1.7-3.7,2.5c-1.2,0.8-2.5,1.6-3.7,2.3c-0.9,0.4-1.8,0.7-2.8,1.2
		c-1,0.4-2,0.9-3,1.3c-0.8,0.2-1.4,0.3-2,0.4c-0.6,0.1-1.2,0.1-1.9-0.2c-0.2,0-0.3-0.1-0.4-0.2c-0.1-0.1-0.1-0.2-0.2-0.2
		c-0.1-0.1-0.2-0.1-0.3-0.1c-0.1,0-0.1,0-0.2-0.1c-0.4-0.3-0.8-0.6-1.2-1c-0.4-0.4-0.6-1-0.5-1.8c0.1-0.9,0.3-1.7,0.5-2.5
		c0.2-0.8,0.4-1.6,0.8-2.4c0.9-2,1.9-4.1,2.8-6.3c0.9-2.2,1.9-4.2,2.9-6c-1.2-0.3-2.3-0.4-3.3-0.4c-1.1,0-2.2,0.1-3.3,0.1
		c-0.5,0.1-1,0.1-1.5,0.1c-0.5,0-1,0.1-1.5,0.2c-0.4,0.1-0.8,0.2-1.3,0.3c-0.4,0.1-0.9,0.3-1.3,0.5c-0.2,0.1-0.4,0.1-0.4,0.1
		s-0.1,0-0.2,0c0,0-0.1,0-0.1,0c0,0-0.1,0.1-0.3,0.1c-0.3,0.1-0.6,0.3-0.9,0.5s-0.7,0.3-0.9,0.2c-0.2-0.1-0.4-0.2-0.4-0.5
		c-0.1-0.2-0.1-0.5,0.1-0.7c0.5-0.3,1-0.5,1.5-0.8c0.4-0.3,0.9-0.5,1.3-0.7c0.4-0.2,0.9-0.4,1.4-0.5c0.5-0.1,1.1-0.3,1.8-0.4
		c1-0.1,2-0.2,3.1-0.3c1.1-0.1,2.2-0.1,3.3-0.1c0.7,0,1.3,0.1,2,0.2c0.6,0.1,1.3,0.2,1.9,0.1c0.6-1.1,1.2-2.1,1.8-3.1
		c0.6-1,1.1-2.1,1.6-3.3l0.5-1.1c0.2-0.4,0.3-0.8,0.4-1.2c0.1-0.4,0.3-0.7,0.6-1.1c-0.1-0.2-0.1-0.4,0-0.5c0.1-0.1,0.1-0.2,0.2-0.4
		c0.5-0.1,0.9-0.1,1.3,0s0.6,0.4,0.7,0.7c0,0.2,0.1,0.4,0.1,0.6c0,0.3,0,0.5,0,0.7c0,0.2-0.1,0.3-0.2,0.4c-0.1,0.1-0.2,0.3-0.4,0.4
		c-0.1,0.2-0.2,0.3-0.2,0.5c0,0.2,0,0.4-0.1,0.6c-0.1,0.4-0.2,0.7-0.4,1c-0.2,0.3-0.3,0.6-0.4,0.8c0,0.4-0.1,0.8-0.3,1.1
		c-0.2,0.3-0.4,0.7-0.5,1c-0.3,0.4-0.5,0.9-0.6,1.3c-0.2,0.4-0.4,0.8-0.7,1.3c1.2-0.1,2.5-0.1,3.7-0.2c1.2-0.1,2.5-0.1,3.6,0.1
		c0,0.2,0,0.2-0.1,0.3c-0.1,0-0.2,0.1-0.3,0.1c0.4,0.4,0.3,0.8-0.4,1c-0.3,0.1-0.5,0.2-0.6,0.2c-0.2,0.1-0.4,0.1-0.6,0.2
		c-0.5,0.1-1,0.1-1.5,0.1c-0.6,0-1.1,0.1-1.6,0.1c-0.6,0.1-1.2,0.1-1.7,0.1s-1,0-1.3,0c-0.2,0.5-0.3,0.9-0.5,1.4
		c-0.1,0.4-0.4,0.9-0.7,1.3c-0.2,0.3-0.4,0.7-0.6,1.1c-0.2,0.4-0.4,0.8-0.6,1.1c0,0.1-0.1,0.2-0.1,0.2c-0.1,0-0.1,0.1-0.1,0.2
		c-0.2,0.4-0.4,0.8-0.5,1.2c-0.1,0.4-0.3,0.9-0.5,1.3c-0.1,0.2-0.2,0.3-0.3,0.5c-0.1,0.1-0.2,0.3-0.3,0.5l-1,2.2
		c-0.1,0.2-0.2,0.3-0.2,0.5s-0.2,0.3-0.2,0.5c-0.1,0.2-0.1,0.4-0.1,0.6c0,0.2-0.1,0.4-0.1,0.6l-0.6,1.2c-0.1,0.1-0.1,0.2-0.2,0.3
		c-0.1,0.1-0.1,0.2-0.2,0.2c-0.1,0.4-0.1,0.7-0.1,0.9c0,0.3-0.1,0.5-0.4,0.8c0.1,0.3,0.1,0.5-0.1,0.8c-0.2,0.3-0.2,0.5-0.2,0.8
		c0,0.4,0.3,0.7,0.7,0.9c0.4,0.2,0.8,0.2,1.3,0.1c0.3-0.1,0.5-0.2,0.8-0.3c0.3-0.1,0.5-0.2,0.8-0.3c1.6-0.8,3.2-1.7,4.9-2.5
		c1.6-0.9,3.1-1.8,4.5-2.8c0.4-0.3,0.7-0.5,1.1-0.8c0.4-0.3,0.8-0.5,1.2-0.8c0.6-0.4,1.2-0.8,1.6-1.2c0.5-0.4,0.9-0.7,1.3-1
		c0.4-0.3,0.9-0.7,1.3-1c0.4-0.3,0.9-0.7,1.5-1.2c0,0.1,0.1,0.1,0.3,0.1c0.1,0,0.3,0,0.5,0c0.2,0,0.4,0,0.5,0c0.2,0,0.3,0.1,0.4,0.2
		c0,0.2-0.1,0.4-0.4,0.7c0.1,0,0.2,0.1,0.3,0.1C313.2,311.7,313.3,311.8,313.3,311.9z"/>
	<path d="M338.8,311.5c-0.2,0.2-0.4,0.3-0.5,0.5c-0.2,0.1-0.3,0.3-0.4,0.6c-0.2,0.1-0.3,0.2-0.4,0.3c-0.1,0.1-0.2,0.1-0.3,0.2
		c-0.1,0.1-0.2,0.2-0.3,0.3c-0.1,0.1-0.2,0.3-0.4,0.5c-0.4,0.4-0.8,0.8-1.2,1.1c-0.4,0.3-0.9,0.7-1.5,1.1c-1.1,0.8-2.2,1.6-3.4,2.4
		c-1.1,0.8-2.3,1.5-3.5,2.1c-0.6,0.4-1.2,0.7-1.8,1.2c-0.6,0.4-1.2,0.7-1.8,0.9c-0.2,0.1-0.4,0.1-0.6,0.2s-0.4,0.1-0.6,0.2
		c-0.4,0.2-0.8,0.3-1.2,0.4c-0.4,0.1-0.9,0.1-1.4,0c-0.9-0.1-1.5-0.3-1.9-0.5c-0.4-0.2-0.9-0.6-1.4-1.1c-0.4-0.4-0.8-0.8-1.1-1.2
		c-0.3-0.4-0.5-1-0.4-1.7c0.1-1,0.4-1.9,0.8-2.7c0.4-0.8,0.9-1.6,1.3-2.3c0.3-0.4,0.6-0.9,0.8-1.3c0.3-0.4,0.5-0.9,0.9-1.3
		c-0.5,0.1-0.9,0.2-1.3,0.3c-0.3,0.1-0.8,0.2-1.3,0.3c-0.3,0.1-0.5,0.1-0.8,0.1c-0.3,0-0.5,0-0.6,0c-0.2-0.1-0.3-0.2-0.5-0.3
		s-0.3-0.2-0.4-0.4c-0.1,0.2-0.2,0.4-0.3,0.5c-0.1,0.1-0.1,0.2-0.3,0.4c-0.1,0.1-0.3,0.3-0.6,0.5s-0.7,0.5-1.2,0.9
		c-0.3,0.1-0.5,0.2-0.6,0.3c-0.2,0.2-0.4,0.4-0.7,0.6s-0.7,0.4-1.2,0.4c0,0-0.1,0-0.2,0c-0.1,0.1-0.3,0.1-0.4,0.1
		c-0.1,0-0.2,0-0.3,0c0,0.1-0.1,0.1-0.3,0c-0.1,0-0.1,0-0.2,0c-0.1,0-0.2,0-0.4,0c-0.3-0.3-0.3-0.5-0.2-0.7s0.3-0.4,0.6-0.5
		c0.4-0.1,0.5-0.2,0.5-0.4c0-0.1,0.1-0.3,0.3-0.4c0.2-0.2,0.3-0.3,0.4-0.5c0.1-0.1,0.2-0.2,0.5-0.3c0.4-0.3,0.6-0.6,0.9-0.7
		c0.2-0.2,0.4-0.3,0.6-0.5c0.2-0.1,0.3-0.3,0.5-0.5c0.2-0.2,0.4-0.5,0.7-0.9l0.1-0.2c0-0.1,0.1-0.1,0.1-0.2c0-0.1,0.1-0.2,0.1-0.2
		c-0.2-0.7-0.2-1.4,0.2-2.1c0.3-0.6,0.7-1.2,0.9-1.8c0.1-0.3,0.2-0.5,0.4-0.7c0.2-0.2,0.3-0.4,0.5-0.6c0.4-0.4,0.8-0.9,1.2-1.4
		c0.4-0.5,0.9-0.9,1.4-1.3c0.3,0.2,0.7,0.2,1.2,0.2s1,0.1,1.3,0.2c0,0.1,0.1,0.2,0.1,0.3c0,0.1,0.1,0.2,0.1,0.3c0,0.1,0,0.2,0,0.3
		c0,0.1,0,0.2,0,0.4c-0.1,0.2-0.1,0.3-0.2,0.5s-0.1,0.3-0.1,0.5c-0.1,0.2-0.2,0.4-0.4,0.6c-0.2,0.2-0.3,0.4-0.5,0.6
		c-0.3,0.4-0.6,0.9-0.9,1.3c-0.3,0.4-0.6,0.8-1,1.1l-1,1.2c-0.1,0.1-0.2,0.1-0.2,0.2s-0.2,0.1-0.2,0.2c0,0.3-0.1,0.5-0.3,0.8
		c0.5,0,0.9-0.1,1.3-0.2s0.9-0.2,1.3-0.4c0.4-0.1,0.9-0.2,1.3-0.2c0.5,0,1,0,1.5,0.1c0.1,0,0.2,0,0.3,0.1c0.1,0,0.3,0.1,0.4,0.1
		c0.3,0.1,0.6,0.2,0.8,0.3s0.3,0.4,0.4,0.7c0,0.2,0,0.5-0.1,0.8c-0.1,0.3-0.2,0.6-0.3,0.7c-0.1,0.3-0.3,0.5-0.5,0.8
		c-0.2,0.3-0.4,0.5-0.6,0.8c-0.2,0.3-0.4,0.5-0.5,0.8c-0.2,0.3-0.4,0.5-0.5,0.8c-0.4,0.5-0.8,1.1-1.2,1.6c-0.4,0.5-0.7,1.1-0.9,1.6
		c-0.1,0.3-0.1,0.6-0.1,1c0,0.4,0.1,0.7,0.3,1c0.1,0.3,0.4,0.6,0.6,0.8c0.3,0.2,0.6,0.4,1,0.4c0.2,0,0.4,0,0.6,0
		c0.3,0,0.4-0.1,0.6-0.1c1-0.3,1.9-0.7,2.8-1.2c0.9-0.5,1.7-1,2.5-1.5c0.9-0.5,1.7-1,2.4-1.5c0.8-0.5,1.5-1.1,2.4-1.6
		c0.8-0.5,1.5-1,2.1-1.4c0.6-0.4,1.3-1,2.1-1.7c0.5-0.4,1-0.8,1.4-1c0.4-0.3,0.9-0.6,1.5-1.1c0.2-0.2,0.4-0.3,0.6-0.5
		c0.2-0.1,0.4-0.2,0.6-0.3c0.2,0,0.4,0,0.6,0c0.3,0,0.4,0.2,0.5,0.4c0.1,0.3,0,0.5-0.3,0.7C338.9,311,338.8,311.2,338.8,311.5z"/>
	<path d="M362.6,311.8c0,0.2-0.1,0.2-0.2,0.3c-0.2,0-0.3,0.1-0.5,0.1c0.1,0.1,0.2,0.1,0.5,0.2c0.3,0.1,0.3,0.1,0.2,0.1
		c0,0.1,0.1,0.1,0.2,0.1c0.1,0,0.2,0,0.2,0.1c-0.1,0.3-0.3,0.4-0.5,0.3s-0.4,0-0.6,0c-0.2,0.1-0.3,0.1-0.3,0.2
		c0,0.1-0.1,0.2-0.2,0.3c-1.4,0.5-2.7,1.1-4.1,1.7c-1.3,0.6-2.6,1.2-3.8,1.9c-1.5,0.7-3,1.5-4.3,2.4c-1.4,0.8-2.7,1.7-4.1,2.6
		c-0.1,0.2-0.3,0.3-0.4,0.3c-0.1,0-0.3,0.1-0.4,0.3c-1.6,3.6-3.4,7-5.3,10.3c-1.9,3.3-4.2,6.3-6.8,9c-0.4,0.1-0.6,0.2-0.8,0.5
		c-0.1,0.2-0.4,0.4-0.8,0.5c-0.1,0.2-0.2,0.3-0.4,0.4s-0.4,0.2-0.5,0.4c-0.1,0.1-0.3,0.1-0.4,0.2s-0.3,0.2-0.4,0.2
		c-0.4,0-0.7,0-1.1,0.2c-0.3,0.2-0.7,0.2-1.1,0.1c-0.2,0-0.3-0.1-0.5-0.2s-0.3-0.2-0.5-0.2l-0.4-0.1c-0.1,0-0.1-0.1-0.2-0.1
		c0,0-0.1-0.1-0.2-0.1c-0.2-0.1-0.3-0.1-0.5-0.1c-0.1,0-0.3,0-0.4,0c-0.1-0.4-0.2-0.7-0.2-1.1c0-0.4,0.1-0.7,0.2-1
		c0.1-0.6,0.4-1.2,0.7-1.8s0.6-1.1,0.9-1.7c0.3-0.5,0.6-1.1,0.9-1.6c0.3-0.5,0.7-1,1-1.5c0.7-1,1.5-2,2.3-2.9
		c0.8-0.9,1.7-1.7,2.5-2.6c0.1,0,0.1,0,0.2,0c0,0,0.1-0.1,0.2-0.1c0.5-0.5,1-1.1,1.5-1.5c0.6-0.5,1.1-1,1.7-1.4
		c0.6-0.5,1.2-1.1,1.9-1.6s1.4-1,2.1-1.5c0.3-0.3,0.6-0.5,0.8-0.7c0.3-0.2,0.5-0.5,0.6-0.9c0-0.1,0.1-0.1,0.1-0.2s0-0.2,0.1-0.3
		l0.5-1.3c0.2-0.4,0.4-0.9,0.6-1.4s0.4-1,0.6-1.6c-0.4,0.4-0.9,0.8-1.4,1.1c-0.5,0.4-1.1,0.8-1.6,1.2c-0.4,0.3-0.8,0.6-1.2,0.9
		c-0.4,0.3-0.8,0.5-1.2,0.6c-0.3,0.1-0.7,0.2-1.1,0.3s-0.8,0.1-1.1,0c-0.1-0.1-0.3-0.2-0.4-0.3c-0.1-0.1-0.2-0.3-0.3-0.4
		c-0.2-0.2-0.4-0.3-0.6-0.4c-0.2-0.1-0.4-0.2-0.5-0.3c-0.2-0.1-0.3-0.3-0.4-0.5c-0.1-0.2-0.1-0.5-0.1-0.8c0-0.8,0.2-1.5,0.5-2.3
		c0.3-0.8,0.6-1.5,0.9-2.2c0.3-0.7,0.7-1.4,1-2.1c0.3-0.7,0.6-1.4,0.8-2c0.1-0.1,0.1-0.2,0-0.2c-0.1,0-0.1-0.1-0.1-0.3
		c0.2,0,0.4-0.1,0.6-0.2c0.2-0.1,0.5-0.2,0.7-0.2c0.2,0,0.5,0,0.7,0s0.4,0.2,0.5,0.4c0.1,0.4,0.1,0.8,0.1,1.2
		c-0.1,0.4-0.2,0.8-0.4,1.3c-0.1,0.4-0.3,0.7-0.3,1.1s-0.2,0.7-0.4,1.1c-0.1,0.2-0.2,0.4-0.4,0.6c-0.1,0.2-0.3,0.4-0.3,0.7
		c-0.3,0.6-0.5,1.2-0.8,1.8c-0.3,0.6-0.4,1.2-0.5,1.8c0,0.1,0,0.2-0.1,0.4c0,0.1,0,0.2,0.1,0.4c0.9-0.3,1.8-0.8,2.6-1.3
		c0.8-0.6,1.6-1.1,2.4-1.7c0.4-0.3,0.7-0.6,1.1-0.9c0.4-0.3,0.7-0.6,1.1-0.9c0.4-0.3,0.7-0.6,1.1-0.9c0.4-0.3,0.7-0.6,1-0.9
		c0.3-0.3,0.5-0.7,0.7-1.2s0.4-0.9,0.6-1.3c0.2,0,0.3,0,0.4,0c0.1,0,0.2,0,0.4,0.1c0.1,0,0.1-0.1,0.1-0.1c0-0.1,0.1-0.1,0.1-0.1
		c0.3,0.1,0.6,0.1,0.9,0.2c0.3,0.1,0.5,0.2,0.6,0.5c0,0.2,0,0.4-0.1,0.7c-0.1,0.3-0.2,0.6-0.3,0.7c-0.3,0.5-0.5,1.1-0.9,1.7
		c-0.3,0.6-0.7,1.1-0.9,1.8c-0.3,0.6-0.6,1.2-0.7,1.6c-0.2,0.5-0.4,1-0.7,1.7c1-0.6,2.1-1.2,3.2-1.8c1.1-0.6,2.1-1.3,3.2-1.9
		c1.1-0.6,2.2-1.2,3.4-1.8c1.2-0.6,2.4-1.1,3.6-1.5c0.2-0.1,0.5-0.2,0.8-0.4s0.6-0.3,0.8-0.4c0.1,0,0.2,0,0.2,0
		c0.1,0,0.1,0.1,0.2,0.1c0.1,0,0.1,0,0.2,0s0.2,0,0.4-0.1c0.1,0.1,0.1,0.1,0,0.1c-0.1,0-0.1,0-0.1,0.1c0.1,0,0.2,0,0.3,0
		C362.4,311.8,362.5,311.8,362.6,311.8z M326.5,341.9c0.1,0.1,0.2,0.2,0.1,0.4c0,0.2,0,0.3,0.2,0.4c1.3-0.4,2.3-1.1,3.2-1.9
		c0.9-0.9,1.7-1.8,2.4-2.7c0,0,0.1,0,0.1,0s0.1,0,0.1-0.1c0.7-0.9,1.4-1.8,1.9-2.7c0.6-0.9,1.2-1.9,1.8-2.9c1.2-1.9,2.3-3.9,3.2-6
		c-1.4,1.1-2.7,2.2-4,3.3s-2.6,2.2-3.8,3.5c-1.2,1.2-2.2,2.6-3.2,4C327.8,338.6,327,340.2,326.5,341.9z"/>
</g>
<g>
</g>
<g>
</g>
<g>
</g>
<g>
</g>
<g>
</g>
<g>
</g>
</svg>
